<svg width="296" height="299" viewBox="0 0 296 299" fill="none" xmlns="http://www.w3.org/2000/svg">
<path d="M51.2617 5.00372C47.2871 4.84688 45.7182 9.68276 48.1762 12.2183C61.721 26.1509 102.669 154.419 118.306 208.032C122.071 222.069 131.066 245.831 134.884 254.169C135.511 255.581 136.793 257.123 138.414 256.992C140.506 256.862 141.473 253.986 141.63 251.947C143.173 233.309 145.683 198.125 146.285 188.009C153.972 89.5401 98.1978 23.0402 51.6016 5.00372H51.2878H51.2617Z" fill="#362818"/>
<path d="M227 57C238.598 57 248 47.598 248 36C248 24.402 238.598 15 227 15C215.402 15 206 24.402 206 36C206 47.598 215.402 57 227 57Z" fill="#362818"/>
<path d="M221.347 70.1751C207.178 63.8515 191.206 66.151 192.004 84.5992C194.889 152.016 162.635 214.651 146.174 277.155C145.555 281.911 141.562 292.207 146.251 294.846C147.693 295.368 149.394 294.506 149.806 293.121C153 281.937 159.57 267.069 164.362 256.434C190.536 201.821 215.757 146.058 235.027 102.054C242.472 88.7801 235.156 76.159 221.734 70.3319L221.373 70.1751H221.347Z" fill="#362818"/>
</svg>
